<svg width="14" height="14" viewBox="0 0 14 14" fill="none" xmlns="http://www.w3.org/2000/svg">
<path d="M3.34399 8.54866L2.35066 12.85C2.28932 13.116 2.39599 13.3927 2.62132 13.548C2.73532 13.6267 2.86732 13.6667 2.99999 13.6667C3.12866 13.6667 3.25799 13.6293 3.36999 13.5547L6.99999 11.1347L10.63 13.5547C10.862 13.7093 11.1667 13.7033 11.3933 13.5387C11.6187 13.374 11.718 13.0853 11.6413 12.8173L10.422 8.55066L13.446 5.82933C13.644 5.65066 13.7167 5.372 13.6313 5.12C13.5453 4.868 13.318 4.69066 13.0527 4.66933L9.25199 4.36666L7.60732 0.725995C7.49999 0.486662 7.26199 0.333328 6.99999 0.333328C6.73799 0.333328 6.49999 0.486662 6.39266 0.725995L4.74799 4.36666L0.947324 4.66866C0.685991 4.68933 0.461324 4.86066 0.373324 5.10666C0.283991 5.35266 0.347991 5.62799 0.534658 5.81066L3.34399 8.54866ZM5.24599 5.66466C5.48799 5.64533 5.70132 5.496 5.80066 5.274L6.99999 2.61999L8.19932 5.274C8.29866 5.496 8.51199 5.64533 8.75399 5.66466L11.402 5.87466L9.22132 7.83733C9.03199 8.00799 8.95666 8.27066 9.02599 8.516L9.86132 11.4393L7.37066 9.77866C7.14666 9.62866 6.85532 9.62866 6.63132 9.77866L4.02866 11.514L4.72866 8.48333C4.78066 8.25666 4.71132 8.01866 4.54466 7.85666L2.51932 5.882L5.24599 5.66466Z" fill="white"/>
</svg>
